<mxfile host="app.diagrams.net" agent="Mozilla/5.0 (Windows NT 10.0; Win64; x64) AppleWebKit/537.36 (KHTML, like Gecko) Chrome/131.0.0.0 Safari/537.36" version="24.9.3">
  <diagram name="Page-1" id="I8qoRnBF1TvQvKqINtAr">
    <mxGraphModel dx="1290" dy="530" grid="1" gridSize="10" guides="1" tooltips="1" connect="1" arrows="1" fold="1" page="1" pageScale="1" pageWidth="827" pageHeight="1169" math="0" shadow="0">
      <root>
        <mxCell id="0" />
        <mxCell id="1" parent="0" />
        <mxCell id="YU8IBkJR2fgqWBuLfcPq-1" value="" style="edgeStyle=orthogonalEdgeStyle;rounded=0;orthogonalLoop=1;jettySize=auto;html=1;" parent="1" source="YU8IBkJR2fgqWBuLfcPq-2" target="YU8IBkJR2fgqWBuLfcPq-16" edge="1">
          <mxGeometry relative="1" as="geometry" />
        </mxCell>
        <mxCell id="YU8IBkJR2fgqWBuLfcPq-2" value="輸入手機號碼與密碼" style="rounded=1;whiteSpace=wrap;html=1;fontSize=12;glass=0;strokeWidth=1;shadow=0;" parent="1" vertex="1">
          <mxGeometry x="167.5" y="154" width="120" height="40" as="geometry" />
        </mxCell>
        <mxCell id="YU8IBkJR2fgqWBuLfcPq-3" value="如果未被註冊" style="rounded=0;html=1;jettySize=auto;orthogonalLoop=1;fontSize=11;endArrow=block;endFill=0;endSize=8;strokeWidth=1;shadow=0;labelBackgroundColor=none;edgeStyle=orthogonalEdgeStyle;" parent="1" source="YU8IBkJR2fgqWBuLfcPq-5" target="YU8IBkJR2fgqWBuLfcPq-10" edge="1">
          <mxGeometry y="50" relative="1" as="geometry">
            <mxPoint as="offset" />
          </mxGeometry>
        </mxCell>
        <mxCell id="YU8IBkJR2fgqWBuLfcPq-4" value="如果已被註冊" style="edgeStyle=orthogonalEdgeStyle;rounded=0;html=1;jettySize=auto;orthogonalLoop=1;fontSize=11;endArrow=block;endFill=0;endSize=8;strokeWidth=1;shadow=0;labelBackgroundColor=none;" parent="1" source="YU8IBkJR2fgqWBuLfcPq-5" target="YU8IBkJR2fgqWBuLfcPq-7" edge="1">
          <mxGeometry y="10" relative="1" as="geometry">
            <mxPoint as="offset" />
          </mxGeometry>
        </mxCell>
        <mxCell id="YU8IBkJR2fgqWBuLfcPq-5" value="檢查手機號碼是否已被註冊" style="rhombus;whiteSpace=wrap;html=1;shadow=0;fontFamily=Helvetica;fontSize=12;align=center;strokeWidth=1;spacing=6;spacingTop=-4;" parent="1" vertex="1">
          <mxGeometry x="177.5" y="324" width="100" height="80" as="geometry" />
        </mxCell>
        <mxCell id="YU8IBkJR2fgqWBuLfcPq-6" style="edgeStyle=orthogonalEdgeStyle;rounded=0;orthogonalLoop=1;jettySize=auto;html=1;exitX=0.5;exitY=0;exitDx=0;exitDy=0;entryX=1;entryY=0.25;entryDx=0;entryDy=0;" parent="1" source="YU8IBkJR2fgqWBuLfcPq-7" target="YU8IBkJR2fgqWBuLfcPq-2" edge="1">
          <mxGeometry relative="1" as="geometry" />
        </mxCell>
        <mxCell id="YU8IBkJR2fgqWBuLfcPq-7" value="提醒使用者「手機號碼已存在」" style="rounded=1;whiteSpace=wrap;html=1;fontSize=12;glass=0;strokeWidth=1;shadow=0;" parent="1" vertex="1">
          <mxGeometry x="477.5" y="344" width="170" height="40" as="geometry" />
        </mxCell>
        <mxCell id="YU8IBkJR2fgqWBuLfcPq-8" value="如果符合要求" style="rounded=0;html=1;jettySize=auto;orthogonalLoop=1;fontSize=11;endArrow=block;endFill=0;endSize=8;strokeWidth=1;shadow=0;labelBackgroundColor=none;edgeStyle=orthogonalEdgeStyle;" parent="1" source="YU8IBkJR2fgqWBuLfcPq-10" target="YU8IBkJR2fgqWBuLfcPq-11" edge="1">
          <mxGeometry x="-0.1111" y="40" relative="1" as="geometry">
            <mxPoint as="offset" />
          </mxGeometry>
        </mxCell>
        <mxCell id="YU8IBkJR2fgqWBuLfcPq-9" value="如果不符合要求" style="edgeStyle=orthogonalEdgeStyle;rounded=0;html=1;jettySize=auto;orthogonalLoop=1;fontSize=11;endArrow=block;endFill=0;endSize=8;strokeWidth=1;shadow=0;labelBackgroundColor=none;" parent="1" source="YU8IBkJR2fgqWBuLfcPq-10" target="YU8IBkJR2fgqWBuLfcPq-13" edge="1">
          <mxGeometry y="10" relative="1" as="geometry">
            <mxPoint as="offset" />
          </mxGeometry>
        </mxCell>
        <mxCell id="YU8IBkJR2fgqWBuLfcPq-10" value="驗證密碼強度" style="rhombus;whiteSpace=wrap;html=1;shadow=0;fontFamily=Helvetica;fontSize=12;align=center;strokeWidth=1;spacing=6;spacingTop=-4;" parent="1" vertex="1">
          <mxGeometry x="177.5" y="444" width="100" height="80" as="geometry" />
        </mxCell>
        <mxCell id="YU8IBkJR2fgqWBuLfcPq-11" value="儲存使用者資料到資料庫，並顯示註冊成功，跳回登入頁面" style="rounded=1;whiteSpace=wrap;html=1;fontSize=12;glass=0;strokeWidth=1;shadow=0;" parent="1" vertex="1">
          <mxGeometry x="65" y="674" width="325" height="40" as="geometry" />
        </mxCell>
        <mxCell id="YU8IBkJR2fgqWBuLfcPq-12" style="edgeStyle=orthogonalEdgeStyle;rounded=0;orthogonalLoop=1;jettySize=auto;html=1;exitX=1;exitY=0.5;exitDx=0;exitDy=0;entryX=1;entryY=0.75;entryDx=0;entryDy=0;" parent="1" source="YU8IBkJR2fgqWBuLfcPq-13" target="YU8IBkJR2fgqWBuLfcPq-2" edge="1">
          <mxGeometry relative="1" as="geometry" />
        </mxCell>
        <mxCell id="YU8IBkJR2fgqWBuLfcPq-13" value="提示使用者「密碼不符合要求」" style="rounded=1;whiteSpace=wrap;html=1;fontSize=12;glass=0;strokeWidth=1;shadow=0;" parent="1" vertex="1">
          <mxGeometry x="467.5" y="464" width="190" height="40" as="geometry" />
        </mxCell>
        <mxCell id="YU8IBkJR2fgqWBuLfcPq-14" value="註冊流程圖" style="text;html=1;align=center;verticalAlign=middle;resizable=0;points=[];autosize=1;strokeColor=none;fillColor=none;" parent="1" vertex="1">
          <mxGeometry x="187.5" y="102" width="80" height="30" as="geometry" />
        </mxCell>
        <mxCell id="YU8IBkJR2fgqWBuLfcPq-15" value="" style="edgeStyle=orthogonalEdgeStyle;rounded=0;orthogonalLoop=1;jettySize=auto;html=1;" parent="1" source="YU8IBkJR2fgqWBuLfcPq-16" target="YU8IBkJR2fgqWBuLfcPq-5" edge="1">
          <mxGeometry relative="1" as="geometry" />
        </mxCell>
        <mxCell id="YU8IBkJR2fgqWBuLfcPq-16" value="驗證手機號碼" style="rounded=1;whiteSpace=wrap;html=1;fontSize=12;glass=0;strokeWidth=1;shadow=0;" parent="1" vertex="1">
          <mxGeometry x="167.5" y="234" width="120" height="40" as="geometry" />
        </mxCell>
        <mxCell id="_3Ja_STK182xu5NTVRt1-2" value="1.1.1.1" style="text;html=1;align=center;verticalAlign=middle;resizable=0;points=[];autosize=1;strokeColor=none;fillColor=none;" parent="1" vertex="1">
          <mxGeometry x="197.5" y="70" width="60" height="30" as="geometry" />
        </mxCell>
        <mxCell id="_3Ja_STK182xu5NTVRt1-3" value="1.1.1.1.1" style="text;html=1;align=center;verticalAlign=middle;resizable=0;points=[];autosize=1;strokeColor=none;fillColor=none;" parent="1" vertex="1">
          <mxGeometry x="82.5" y="159" width="70" height="30" as="geometry" />
        </mxCell>
        <mxCell id="_3Ja_STK182xu5NTVRt1-4" value="1.1.1.1.2" style="text;html=1;align=center;verticalAlign=middle;resizable=0;points=[];autosize=1;strokeColor=none;fillColor=none;" parent="1" vertex="1">
          <mxGeometry x="87.5" y="239" width="70" height="30" as="geometry" />
        </mxCell>
        <mxCell id="_3Ja_STK182xu5NTVRt1-5" value="1.1.1.1.3" style="text;html=1;align=center;verticalAlign=middle;resizable=0;points=[];autosize=1;strokeColor=none;fillColor=none;" parent="1" vertex="1">
          <mxGeometry x="82.5" y="349" width="70" height="30" as="geometry" />
        </mxCell>
        <mxCell id="_3Ja_STK182xu5NTVRt1-6" value="1.1.1.1.3.1" style="text;html=1;align=center;verticalAlign=middle;resizable=0;points=[];autosize=1;strokeColor=none;fillColor=none;" parent="1" vertex="1">
          <mxGeometry x="682.5" y="349" width="80" height="30" as="geometry" />
        </mxCell>
        <mxCell id="_3Ja_STK182xu5NTVRt1-7" value="1.1.1.1.4" style="text;html=1;align=center;verticalAlign=middle;resizable=0;points=[];autosize=1;strokeColor=none;fillColor=none;" parent="1" vertex="1">
          <mxGeometry x="82.5" y="469" width="70" height="30" as="geometry" />
        </mxCell>
        <mxCell id="_3Ja_STK182xu5NTVRt1-8" value="1.1.1.1.4.1" style="text;html=1;align=center;verticalAlign=middle;resizable=0;points=[];autosize=1;strokeColor=none;fillColor=none;" parent="1" vertex="1">
          <mxGeometry x="682.5" y="469" width="80" height="30" as="geometry" />
        </mxCell>
        <mxCell id="_3Ja_STK182xu5NTVRt1-9" value="1.1.1.1.5" style="text;html=1;align=center;verticalAlign=middle;resizable=0;points=[];autosize=1;strokeColor=none;fillColor=none;" parent="1" vertex="1">
          <mxGeometry x="421.5" y="679" width="70" height="30" as="geometry" />
        </mxCell>
      </root>
    </mxGraphModel>
  </diagram>
</mxfile>
